<?xml version="1.0" encoding="UTF-8" standalone="no"?>
<!DOCTYPE svg PUBLIC "-//W3C//DTD SVG 1.1//EN"
 "http://www.w3.org/Graphics/SVG/1.1/DTD/svg11.dtd">
<!-- Generated by graphviz version 2.40.1 (20161225.0304)
 -->
<!-- Title: %0 Pages: 1 -->
<svg width="215pt" height="44pt"
 viewBox="0.00 0.00 214.68 44.00" xmlns="http://www.w3.org/2000/svg" xmlns:xlink="http://www.w3.org/1999/xlink">
<g id="graph0" class="graph" transform="scale(1 1) rotate(0) translate(4 40)">
<title>%0</title>
<polygon fill="#ffffff" stroke="transparent" points="-4,4 -4,-40 210.678,-40 210.678,4 -4,4"/>
<!-- 1&#45;&gt;2 -->
<g id="edge1" class="edge">
<title>1&#45;&gt;2</title>
<path fill="none" stroke="#cccccc" d="M60.2518,-18C70.2373,-18 81.1798,-18 90.5624,-18"/>
<polygon fill="#cccccc" stroke="#cccccc" points="90.5985,-19.7501 95.5984,-18 90.5984,-16.2501 90.5985,-19.7501"/>
</g>
<!-- 2&#45;&gt;3 -->
<g id="edge2" class="edge">
<title>2&#45;&gt;3</title>
<path fill="none" stroke="#cccccc" d="M132.0332,-18C141.2871,-18 152.6772,-18 162.7068,-18"/>
<polygon fill="#cccccc" stroke="#cccccc" points="162.8091,-19.7501 167.8091,-18 162.809,-16.2501 162.8091,-19.7501"/>
</g>
<!-- 1 -->
<g id="node1" class="node">
<title>1</title>
<path fill="#b22222" stroke="#b3b3b3" d="M47.8366,-36C47.8366,-36 12.0544,-36 12.0544,-36 6.0544,-36 .0544,-30 .0544,-24 .0544,-24 .0544,-12 .0544,-12 .0544,-6 6.0544,0 12.0544,0 12.0544,0 47.8366,0 47.8366,0 53.8366,0 59.8366,-6 59.8366,-12 59.8366,-12 59.8366,-24 59.8366,-24 59.8366,-30 53.8366,-36 47.8366,-36"/>
<text text-anchor="middle" x="29.9455" y="-21" font-family="Helvetica,sans-Serif" font-size="10.00" fill="#ffffff">Commit </text>
<text text-anchor="middle" x="29.9455" y="-9" font-family="Helvetica,sans-Serif" font-size="10.00" fill="#ffffff">(or Stash)</text>
</g>
<!-- 2 -->
<g id="node2" class="node">
<title>2</title>
<path fill="#daa520" stroke="#b3b3b3" d="M119.891,-36C119.891,-36 107.891,-36 107.891,-36 101.891,-36 95.891,-30 95.891,-24 95.891,-24 95.891,-12 95.891,-12 95.891,-6 101.891,0 107.891,0 107.891,0 119.891,0 119.891,0 125.891,0 131.891,-6 131.891,-12 131.891,-12 131.891,-24 131.891,-24 131.891,-30 125.891,-36 119.891,-36"/>
<text text-anchor="middle" x="113.891" y="-15" font-family="Helvetica,sans-Serif" font-size="10.00" fill="#ffffff">Pull</text>
</g>
<!-- 3 -->
<g id="node3" class="node">
<title>3</title>
<path fill="#40e0d0" stroke="#b3b3b3" d="M194.5721,-36C194.5721,-36 179.9969,-36 179.9969,-36 173.9969,-36 167.9969,-30 167.9969,-24 167.9969,-24 167.9969,-12 167.9969,-12 167.9969,-6 173.9969,0 179.9969,0 179.9969,0 194.5721,0 194.5721,0 200.5721,0 206.5721,-6 206.5721,-12 206.5721,-12 206.5721,-24 206.5721,-24 206.5721,-30 200.5721,-36 194.5721,-36"/>
<text text-anchor="middle" x="187.2845" y="-15" font-family="Helvetica,sans-Serif" font-size="10.00" fill="#ffffff">Push</text>
</g>
</g>
</svg>

