<?xml version="1.0" encoding="UTF-8" standalone="no"?>
<!DOCTYPE svg PUBLIC "-//W3C//DTD SVG 1.1//EN"
 "http://www.w3.org/Graphics/SVG/1.1/DTD/svg11.dtd">
<!-- Generated by graphviz version 2.40.1 (20161225.0304)
 -->
<!-- Title: %0 Pages: 1 -->
<svg width="161pt" height="188pt"
 viewBox="0.00 0.00 160.66 188.00" xmlns="http://www.w3.org/2000/svg" xmlns:xlink="http://www.w3.org/1999/xlink">
<g id="graph0" class="graph" transform="scale(1 1) rotate(0) translate(4 184)">
<title>%0</title>
<polygon fill="#ffffff" stroke="transparent" points="-4,4 -4,-184 156.664,-184 156.664,4 -4,4"/>
<!-- 1&#45;&gt;2 -->
<g id="edge1" class="edge">
<title>1&#45;&gt;2</title>
<path fill="none" stroke="#cccccc" d="M76.332,-143.8314C76.332,-134.6078 76.332,-123.295 76.332,-113.4246"/>
<polygon fill="#cccccc" stroke="#cccccc" points="78.0821,-113.4132 76.332,-108.4133 74.5821,-113.4133 78.0821,-113.4132"/>
<text text-anchor="middle" x="53.3507" y="-125.2969" font-family="Helvetica,sans-Serif" font-size="8.00" fill="#000000">git add file(s)</text>
</g>
<!-- 2&#45;&gt;3 -->
<g id="edge2" class="edge">
<title>2&#45;&gt;3</title>
<path fill="none" stroke="#cccccc" d="M76.332,-71.8314C76.332,-62.6078 76.332,-51.295 76.332,-41.4246"/>
<polygon fill="#cccccc" stroke="#cccccc" points="78.0821,-41.4132 76.332,-36.4133 74.5821,-41.4133 78.0821,-41.4132"/>
<text text-anchor="middle" x="47.7532" y="-50.5133" font-family="Helvetica,sans-Serif" font-size="8.00" fill="#000000">git commit file(s)</text>
</g>
<!-- 1 -->
<g id="node1" class="node">
<title>1</title>
<path fill="#b22222" stroke="#b3b3b3" d="M112.269,-180C112.269,-180 40.395,-180 40.395,-180 34.395,-180 28.395,-174 28.395,-168 28.395,-168 28.395,-156 28.395,-156 28.395,-150 34.395,-144 40.395,-144 40.395,-144 112.269,-144 112.269,-144 118.269,-144 124.269,-150 124.269,-156 124.269,-156 124.269,-168 124.269,-168 124.269,-174 118.269,-180 112.269,-180"/>
<text text-anchor="middle" x="76.332" y="-159" font-family="Helvetica,sans-Serif" font-size="10.00" fill="#ffffff">Working Directory</text>
</g>
<!-- 2 -->
<g id="node2" class="node">
<title>2</title>
<path fill="#daa520" stroke="#b3b3b3" d="M102.9701,-108C102.9701,-108 49.6939,-108 49.6939,-108 43.6939,-108 37.6939,-102 37.6939,-96 37.6939,-96 37.6939,-84 37.6939,-84 37.6939,-78 43.6939,-72 49.6939,-72 49.6939,-72 102.9701,-72 102.9701,-72 108.9701,-72 114.9701,-78 114.9701,-84 114.9701,-84 114.9701,-96 114.9701,-96 114.9701,-102 108.9701,-108 102.9701,-108"/>
<text text-anchor="middle" x="76.332" y="-87" font-family="Helvetica,sans-Serif" font-size="10.00" fill="#ffffff">Staging Index</text>
</g>
<!-- 3 -->
<g id="node3" class="node">
<title>3</title>
<path fill="#40e0d0" stroke="#b3b3b3" d="M140.4964,-36C140.4964,-36 12.1676,-36 12.1676,-36 6.1676,-36 .1676,-30 .1676,-24 .1676,-24 .1676,-12 .1676,-12 .1676,-6 6.1676,0 12.1676,0 12.1676,0 140.4964,0 140.4964,0 146.4964,0 152.4964,-6 152.4964,-12 152.4964,-12 152.4964,-24 152.4964,-24 152.4964,-30 146.4964,-36 140.4964,-36"/>
<text text-anchor="middle" x="76.332" y="-15" font-family="Helvetica,sans-Serif" font-size="10.00" fill="#ffffff">Commit History / HEAD / Repo</text>
</g>
</g>
</svg>

